<?xml version="1.0" encoding="UTF-8"?>
<svg version="1.1" xmlns="http://www.w3.org/2000/svg" width="100px" height="100px">
<path d="M0 0 C337.92 0 675.84 0 1024 0 C1024 337.92 1024 675.84 1024 1024 C686.08 1024 348.16 1024 0 1024 C0 686.08 0 348.16 0 0 Z " fill="#060606" transform="translate(0,0)"/>
<path d="M0 0 C160.38 0 320.76 0 486 0 C486 137.94 486 275.88 486 418 C325.62 418 165.24 418 0 418 C0 280.06 0 142.12 0 0 Z " fill="#060606" transform="translate(269,191)"/>
<path d="M0 0 C160.38 0 320.76 0 486 0 C486 137.94 486 275.88 486 418 C325.62 418 165.24 418 0 418 C0 280.06 0 142.12 0 0 Z M23 23 C23 145.43 23 267.86 23 394 C168.2 394 313.4 394 463 394 C463 271.57 463 149.14 463 23 C317.8 23 172.6 23 23 23 Z " fill="#F8F8F8" transform="translate(269,191)"/>
<path d="M0 0 C21.53647102 -0.49143625 43.43693163 4.66142812 59.66015625 19.55859375 C61.56863622 21.38322837 63.42708736 23.24386951 65.28515625 25.12109375 C65.96449219 25.77851563 66.64382813 26.4359375 67.34375 27.11328125 C81.44592654 41.7493932 83.26904686 61.81501536 84.28515625 81.12109375 C70.42515625 81.12109375 56.56515625 81.12109375 42.28515625 81.12109375 C41.29515625 74.19109375 41.29515625 74.19109375 40.28515625 67.12109375 C37.24567679 58.34037531 32.71877083 51.64382215 24.34765625 47.24609375 C11.97014885 41.74292055 -0.9273502 41.35532914 -13.7734375 45.86328125 C-22.40850161 49.5558319 -28.99976005 54.75504523 -32.74609375 63.5390625 C-35.762706 72.54700187 -35.82508694 81.43201286 -31.71484375 90.12109375 C-20.41010366 107.75208742 5.92368616 116.08355745 24.07348633 125.04101562 C28.38173928 127.16782773 32.68713133 129.30026384 36.98828125 131.44140625 C37.63833633 131.76339996 38.28839142 132.08539368 38.95814514 132.41714478 C57.12894362 141.47796661 75.45104575 156.36702253 82.28515625 176.12109375 C82.67356689 177.22952637 82.67356689 177.22952637 83.06982422 178.36035156 C85.41657221 185.81603523 85.74769186 193.04126468 85.67626953 200.79882812 C85.66028253 202.85485276 85.67614841 204.90888093 85.6953125 206.96484375 C85.73247692 229.8874119 78.46438521 249.62514253 62.28515625 266.12109375 C61.54652344 266.89582031 60.80789063 267.67054688 60.046875 268.46875 C46.66472683 281.58100611 27.73843761 287.52260895 9.28515625 288.12109375 C7.45210937 288.1984375 7.45210937 288.1984375 5.58203125 288.27734375 C-19.39897253 289.01351664 -41.77178677 280.06770967 -59.90234375 263.0703125 C-76.52609994 245.82965911 -79.71484375 222.07662689 -79.71484375 199.12109375 C-66.18484375 199.12109375 -52.65484375 199.12109375 -38.71484375 199.12109375 C-37.72484375 205.72109375 -36.73484375 212.32109375 -35.71484375 219.12109375 C-32.90165974 228.36441265 -28.71758369 235.24672277 -20.02734375 239.93359375 C-6.5588374 245.96487647 7.29885474 247.14860213 21.28515625 242.12109375 C31.11951465 237.53728263 36.65755395 231.71278411 40.5234375 221.6484375 C43.92025052 210.37798611 43.63899918 197.68169601 38.28515625 187.12109375 C34.05170987 180.49396975 28.49185984 176.35959884 21.796875 172.50390625 C21.06218994 172.07658203 20.32750488 171.64925781 19.57055664 171.20898438 C10.16891275 165.81170808 0.47046222 160.98331129 -9.21484375 156.12109375 C-66.78696751 127.21873476 -66.78696751 127.21873476 -75.52734375 102.37109375 C-78.05076314 94.3573255 -77.93129465 86.31627125 -77.96484375 77.99609375 C-77.98546875 76.74054688 -78.00609375 75.485 -78.02734375 74.19140625 C-78.07404858 62.93554105 -76.25419534 53.00592218 -71.02734375 42.99609375 C-70.6806665 42.3194165 -70.33398926 41.64273926 -69.97680664 40.94555664 C-66.88108542 35.09001357 -63.18841208 30.01292253 -58.71484375 25.12109375 C-58.163125 24.48945313 -57.61140625 23.8578125 -57.04296875 23.20703125 C-44.40714252 9.5483048 -23.52965215 1.44842486 -5.1484375 0.2109375 C-3.43202117 0.14757061 -1.71587956 0.07653564 0 0 Z " fill="#F7F7F7" transform="translate(417.71484375,256.87890625)"/>
<path d="M0 0 C16.58830217 14.08795841 24.75728083 30.86346584 27.8125 52.25 C27.8125 58.52 27.8125 64.79 27.8125 71.25 C13.9525 71.25 0.0925 71.25 -14.1875 71.25 C-15.1775 62.835 -15.1775 62.835 -16.1875 54.25 C-18.79593535 44.46836742 -22.33828792 35.88131678 -31.1875 30.25 C-42.69010753 25.0147186 -54.27424879 23.08324071 -66.625 26.875 C-75.17547016 30.15746237 -81.55861116 35.29409731 -86.1875 43.25 C-88.93392232 49.66547088 -90.30729066 56.07152829 -90.32794189 63.04750061 C-90.33365204 64.20659943 -90.33936218 65.36569824 -90.34524536 66.55992126 C-90.34636322 67.822845 -90.34748108 69.08576874 -90.34863281 70.38696289 C-90.35326503 71.73767227 -90.35829023 73.08838034 -90.36367798 74.43908691 C-90.37676928 78.10270238 -90.38324109 81.76629955 -90.38768864 85.42993474 C-90.390626 87.72343326 -90.39473215 90.01692686 -90.39919281 92.3104229 C-90.4128621 99.49934428 -90.42253028 106.68825431 -90.4263947 113.87718779 C-90.43086751 122.15067385 -90.44838151 130.42399405 -90.4773953 138.69742972 C-90.49908795 145.10785951 -90.50910309 151.51824291 -90.51043582 157.92870897 C-90.51147888 161.74981509 -90.51727879 165.57076518 -90.53525543 169.39183235 C-90.55186682 172.99276165 -90.55382915 176.59341987 -90.54511642 180.19437408 C-90.54399217 182.12672923 -90.55761008 184.05907592 -90.5718689 185.99137878 C-90.51335476 198.37722465 -88.55660409 208.80437215 -80.1875 218.25 C-72.91083896 225.22486404 -63.62378239 226.80189715 -53.875 226.6875 C-52.49296387 226.67396484 -52.49296387 226.67396484 -51.08300781 226.66015625 C-40.23175809 226.38515098 -31.92544692 224.13437387 -24.0234375 216.375 C-14.50712905 205.36037916 -14.95021442 189.97885956 -14.1875 176.25 C-0.3275 176.25 13.5325 176.25 27.8125 176.25 C27.8125 200.42216599 27.23126815 221.07887676 11.8125 240.25 C11.29171875 240.93320312 10.7709375 241.61640625 10.234375 242.3203125 C-1.93261812 257.38139622 -22.42723906 267.49499726 -41.4921875 269.83203125 C-65.1328115 272.20380877 -87.94185979 268.44958267 -106.8125 253.1171875 C-109.34927469 250.89750964 -111.78223531 248.61116817 -114.1875 246.25 C-114.8990625 245.56292969 -115.610625 244.87585938 -116.34375 244.16796875 C-131.50446906 228.45330034 -134.33056764 206.40921622 -134.34863281 185.53808594 C-134.35326798 184.14917877 -134.35829357 182.76027287 -134.36367798 181.37136841 C-134.37674559 177.61029701 -134.38323707 173.84924342 -134.38768864 170.08815289 C-134.39063138 167.72926029 -134.39473861 165.37037243 -134.39919281 163.01148224 C-134.41285927 155.60524131 -134.4225274 148.19901136 -134.4263947 140.7927587 C-134.43085917 132.29297245 -134.44833528 123.79334831 -134.4773953 115.29361129 C-134.49916221 108.69364918 -134.50910707 102.09373214 -134.51043582 95.4937346 C-134.51147414 91.56680182 -134.51716933 87.64002155 -134.53525543 83.71312714 C-134.66768169 53.18978202 -133.73165078 26.26219543 -111.1875 3.25 C-110.31738281 2.32574219 -110.31738281 2.32574219 -109.4296875 1.3828125 C-80.85636319 -26.42172282 -29.91876088 -22.78858889 0 0 Z " fill="#F6F6F6" transform="translate(656.1875,274.75)"/>
<path d="M0 0 C8.47181739 6.77745391 14.80139642 14.23971577 16.8125 25.25 C17.61104327 38.3031111 16.29892372 48.87106395 7.8125 59.25 C0.2203497 67.25205512 -9.47422785 71.23669048 -20.4375 71.625 C-31.74530025 71.39211624 -40.9337598 66.92789786 -49.1875 59.25 C-57.93204681 48.32324132 -59.64265348 36.82940726 -58.1875 23.25 C-56.10185966 14.50001124 -51.29004727 6.07459672 -43.52099609 1.20556641 C-28.67587144 -7.1858482 -15.26966709 -8.38334664 0 0 Z " fill="#F7F7F7" transform="translate(409.1875,770.75)"/>
<path d="M0 0 C38.41333333 0 38.41333333 0 46.625 7.40234375 C50.69420914 12.13048733 50.4148836 16.83384466 50.3203125 22.859375 C49.87979358 27.17860928 48.96299557 28.87239357 46 32 C44.67949768 33.01688318 43.34813838 34.02005067 42 35 C42.62648438 35.51949219 43.25296875 36.03898438 43.8984375 36.57421875 C44.71570313 37.27160156 45.53296875 37.96898437 46.375 38.6875 C47.18710937 39.37199219 47.99921875 40.05648437 48.8359375 40.76171875 C52.48810862 44.53914483 53.30034441 48.15379873 53.375 53.3125 C53.22254377 60.3921862 51.16371026 64.73565206 46.3125 69.8125 C32.15516988 79.16168027 17.11260362 75 0 75 C0 50.25 0 25.5 0 0 Z " fill="#F6F6F6" transform="translate(626,657)"/>
<path d="M0 0 C41.03777336 0 41.03777336 0 48.4375 5.96484375 C48.953125 6.61582031 49.46875 7.26679687 50 7.9375 C50.53625 8.58589844 51.0725 9.23429688 51.625 9.90234375 C55.9491631 16.49914939 55.6851422 23.34201821 55 31 C53.37394683 37.1828968 49.30470264 41.5506367 44 45 C43.34 45 42.68 45 42 45 C46.69602208 53.48691519 51.40464813 61.88407497 56.78515625 69.9609375 C58 72 58 72 58 74 C43.93946623 75.35261667 43.93946623 75.35261667 39.8828125 72.5234375 C37.90454091 69.5392651 36.58393837 66.4211379 35.2265625 63.11767578 C33.22041976 58.35883832 31.26330989 54.03324707 28 50 C22.91091099 48.33836857 19.45365073 48.63292735 14 49 C14 57.25 14 65.5 14 74 C9.38 74 4.76 74 0 74 C0 49.58 0 25.16 0 0 Z " fill="#F8F8F8" transform="translate(700,766)"/>
<path d="M0 0 C6.23312989 4.32430751 11.29121254 9.77727683 13.19140625 17.24609375 C13.50078125 18.97859375 13.50078125 18.97859375 13.81640625 20.74609375 C4.55057074 23.2588627 4.55057074 23.2588627 0.81640625 22.74609375 C-0.80859375 20.8828125 -0.80859375 20.8828125 -2.18359375 18.43359375 C-4.36410343 14.58672866 -6.07630238 12.53384041 -10.18359375 10.74609375 C-13.0718334 10.4299255 -15.6784718 10.28090027 -18.55859375 10.30859375 C-19.28820312 10.28861328 -20.0178125 10.26863281 -20.76953125 10.24804688 C-26.34444863 10.25302448 -29.65766345 11.45297282 -34.18359375 14.74609375 C-35.99540756 17.10677483 -35.99540756 17.10677483 -37.05859375 19.74609375 C-37.64253906 21.01453125 -37.64253906 21.01453125 -38.23828125 22.30859375 C-41.38757632 30.42909014 -41.3203478 39.65370661 -38.15625 47.77734375 C-35.72569925 52.69701274 -32.59042982 56.32839558 -27.265625 58.27734375 C-20.27535757 59.85113754 -12.37649145 59.62173651 -6.18359375 55.74609375 C-2.67425875 52.51031493 -0.21095009 49.05659438 1.81640625 44.74609375 C3.42104074 45.05618259 5.02509856 45.36925662 6.62890625 45.68359375 C7.52222656 45.85761719 8.41554688 46.03164063 9.3359375 46.2109375 C11.81640625 46.74609375 11.81640625 46.74609375 14.81640625 47.74609375 C12.89463296 56.21390729 8.69843377 62.6109167 1.31640625 67.3515625 C-8.91800454 72.67158396 -19.61720481 74.4993794 -31.02734375 72.1640625 C-40.10221916 69.01944586 -47.40569565 61.93379679 -52.24609375 53.765625 C-56.73658832 44.09235128 -56.64513045 31.79634748 -54.49609375 21.4296875 C-53.58343573 18.99973553 -52.56897261 16.93782316 -51.18359375 14.74609375 C-50.73628906 14.03582031 -50.28898437 13.32554687 -49.828125 12.59375 C-38.70206817 -3.4241924 -17.64542633 -10.13270457 0 0 Z " fill="#F6F6F6" transform="translate(321.18359375,769.25390625)"/>
<path d="M0 0 C0.82113281 -0.02900391 1.64226562 -0.05800781 2.48828125 -0.08789062 C9.40462529 -0.15913664 14.3914355 1.58933959 19.7734375 5.953125 C23.38907222 10.25844727 24.77698032 13.76628783 25.75 19.3125 C24.14743892 19.81762244 22.54288208 20.31641627 20.9375 20.8125 C20.04417969 21.0909375 19.15085937 21.369375 18.23046875 21.65625 C15.75 22.3125 15.75 22.3125 12.75 22.3125 C12.54375 21.19875 12.3375 20.085 12.125 18.9375 C11.13987993 15.17077614 11.13987993 15.17077614 8.1875 13.875 C1.2345847 12.73725022 -4.06331701 12.44582313 -10.25 16.3125 C-12.11922654 18.18172654 -11.54230229 20.81001169 -11.67578125 23.3046875 C-11.0673115 26.1739852 -9.66926334 26.73677157 -7.25 28.3125 C-5.0029092 29.24132109 -5.0029092 29.24132109 -2.58203125 29.92578125 C-1.68806641 30.20486328 -0.79410156 30.48394531 0.12695312 30.77148438 C1.97951822 31.33407711 3.83366364 31.89149579 5.68945312 32.44335938 C13.34639003 34.84951206 21.13088323 37.95033964 25.3125 45.1875 C27.8264007 51.30427221 27.2959817 56.34024556 25.1875 62.4375 C22.3717638 68.86923427 18.38893633 71.84642426 12.375 75.1875 C4.72968615 77.70595633 -6.2560233 77.73935475 -13.875 75.125 C-21.46854436 71.04698544 -25.82860677 67.47230812 -29.25 59.3125 C-30.0625 55.75 -30.0625 55.75 -30.25 53.3125 C-28.85764957 52.80288154 -27.46090882 52.30525091 -26.0625 51.8125 C-25.28519531 51.5340625 -24.50789063 51.255625 -23.70703125 50.96875 C-21.11777221 50.2771832 -18.91742762 50.19879083 -16.25 50.3125 C-15.94707031 50.99957031 -15.64414062 51.68664062 -15.33203125 52.39453125 C-12.82728244 57.82009559 -12.82728244 57.82009559 -9.125 62.4375 C-3.4680361 64.15918466 2.43323882 64.33187492 7.875 61.9375 C9.84669252 60.43829415 9.84669252 60.43829415 10.75 58.3125 C10.8189472 56.93907169 10.83467708 55.56247898 10.8125 54.1875 C10.791875 52.90875 10.77125 51.63 10.75 50.3125 C5.75529338 47.25545152 1.00083338 45.26280223 -4.5625 43.5 C-12.94969729 40.66460964 -21.27843709 37.44662765 -25.875 29.375 C-27.92261687 24.27065364 -28.11210737 19.98171704 -26.4375 14.796875 C-23.5851104 8.18091579 -19.71810293 4.44819927 -13.25 1.3125 C-8.85181788 0.0158431 -4.55401494 0.05262729 0 0 Z " fill="#F7F7F7" transform="translate(295.25,656.6875)"/>
<path d="M0 0 C3.62392618 3.0024948 6.6352131 5.65954029 7.6640625 10.41796875 C7.6640625 11.73796875 7.6640625 13.05796875 7.6640625 14.41796875 C3.7040625 15.73796875 -0.2559375 17.05796875 -4.3359375 18.41796875 C-4.7278125 17.48984375 -5.1196875 16.56171875 -5.5234375 15.60546875 C-7.59818791 11.95676976 -8.42561218 10.88434074 -12.3359375 9.41796875 C-17.25734822 8.8843218 -21.72782394 8.90337241 -26.4609375 10.41796875 C-28.86519606 12.98251121 -29.24308348 14.97661218 -29.78125 18.3828125 C-29.47167407 20.62568303 -29.47167407 20.62568303 -27.40234375 22.4921875 C-23.47446928 24.95899274 -19.58933024 26.05656658 -15.1484375 27.29296875 C2.30191323 32.51330101 2.30191323 32.51330101 7.2890625 39.54296875 C9.88962844 45.12799371 9.6488636 51.92746071 8.00390625 57.7578125 C5.13651932 64.22494925 0.31320657 67.97298108 -5.7734375 71.29296875 C-14.94982359 74.29810104 -27.70333348 73.63055186 -36.3359375 69.41796875 C-42.2889028 65.82546358 -45.33450381 61.01663496 -47.3359375 54.41796875 C-47.5859375 51.35546875 -47.5859375 51.35546875 -47.3359375 49.41796875 C-38.90736607 46.13225446 -38.90736607 46.13225446 -34.3359375 45.41796875 C-33.98982422 46.32289063 -33.98982422 46.32289063 -33.63671875 47.24609375 C-31.27523589 53.03312684 -29.09768712 56.53709394 -23.3359375 59.41796875 C-21.54734239 59.54004746 -19.75365369 59.59345323 -17.9609375 59.60546875 C-16.52621094 59.62673828 -16.52621094 59.62673828 -15.0625 59.6484375 C-12.27351744 59.41269256 -10.68052015 58.90852921 -8.3359375 57.41796875 C-6.04041765 54.20424096 -5.85216817 51.2881234 -6.3359375 47.41796875 C-9.72303932 42.69655409 -14.73266706 41.70019076 -20.0234375 40.04296875 C-29.33231975 36.95499011 -37.67163157 33.91442765 -43.3359375 25.41796875 C-45.61352538 20.86279299 -45.14164595 14.07292369 -43.6875 9.28125 C-40.83482176 3.85628497 -36.43441221 -0.3179296 -30.7890625 -2.62109375 C-20.53279858 -5.72115092 -9.21245557 -6.23920486 0 0 Z " fill="#F7F7F7" transform="translate(563.3359375,660.58203125)"/>
<path d="M0 0 C15.18 0 30.36 0 46 0 C46 4.29 46 8.58 46 13 C35.44 13 24.88 13 14 13 C14 19.27 14 25.54 14 32 C23.24 32 32.48 32 42 32 C42 35.96 42 39.92 42 44 C32.76 44 23.52 44 14 44 C14 49.61 14 55.22 14 61 C25.55 61 37.1 61 49 61 C48.67 65.29 48.34 69.58 48 74 C32.16 74 16.32 74 0 74 C0 49.58 0 25.16 0 0 Z " fill="#FAF9F9" transform="translate(628,766)"/>
<path d="M0 0 C15.18 0 30.36 0 46 0 C46 3.96 46 7.92 46 12 C35.44 12 24.88 12 14 12 C14 18.27 14 24.54 14 31 C23.24 31 32.48 31 42 31 C42 35.29 42 39.58 42 44 C32.76 44 23.52 44 14 44 C14 49.61 14 55.22 14 61 C25.22 61 36.44 61 48 61 C48 65.29 48 69.58 48 74 C31.83 74 15.66 74 -1 74 C-0.67 49.58 -0.34 25.16 0 0 Z " fill="#F7F7F7" transform="translate(451,658)"/>
<path d="M0 0 C6.81689274 4.03289456 10.9727905 9.68698261 12.98046875 17.3046875 C14.12724925 24.53041952 13.38592153 31.92538154 9.7265625 38.3359375 C6.57560341 42.56237364 2.36241244 46.17709349 -2.578125 48.0859375 C-10.12788279 48.91223588 -17.75150143 49.42760314 -24.00390625 44.55859375 C-30.48575382 38.49492989 -33.54470072 31.91998368 -33.953125 23.0234375 C-33.12778677 14.35738605 -30.28738299 7.84417445 -23.578125 2.0859375 C-16.64818506 -2.15608497 -7.68606056 -2.72505783 0 0 Z " fill="#070707" transform="translate(398.578125,779.9140625)"/>
<path d="M0 0 C5.31190773 -0.75423933 10.76205929 -1.50803407 16 0 C19.40478087 3.18902196 21.13431407 6.79347758 23.04638672 11.01367188 C24.39586942 13.82457593 26.00861666 16.44863639 27.64086914 19.10253906 C29.45485126 22.05209289 31.22561216 25.02645993 33 28 C33.47945068 27.18732666 33.95890137 26.37465332 34.45288086 25.53735352 C36.22771889 22.53061723 38.00389913 19.5246826 39.78100586 16.51928711 C40.55075433 15.21687335 41.31996195 13.91413979 42.08862305 12.61108398 C43.19178451 10.74118619 44.2968681 8.8724366 45.40234375 7.00390625 C46.06741943 5.87799072 46.73249512 4.7520752 47.41772461 3.59204102 C49 1 49 1 50 0 C52.86267567 -0.07325168 55.700719 -0.09238205 58.5625 -0.0625 C59.36880859 -0.05798828 60.17511719 -0.05347656 61.00585938 -0.04882812 C63.00393756 -0.03700518 65.00197783 -0.01906914 67 0 C63.31771401 5.7957617 59.62744784 11.58628192 55.921875 17.3671875 C55.23609375 18.43710937 54.5503125 19.50703125 53.84375 20.609375 C52.43271549 22.81016763 51.02124807 25.01068275 49.609375 27.2109375 C48.92875 28.273125 48.248125 29.3353125 47.546875 30.4296875 C46.93682617 31.38085449 46.32677734 32.33202148 45.69824219 33.31201172 C45.13782227 34.19904785 44.57740234 35.08608398 44 36 C43.16359985 37.16462769 43.16359985 37.16462769 42.31030273 38.3527832 C40.5753468 41.85793082 40.52237641 45.09522037 40.48828125 48.92578125 C40.47033005 49.67337204 40.45237885 50.42096283 40.43388367 51.19120789 C40.37996151 53.56491558 40.34594446 55.93842432 40.3125 58.3125 C40.27931079 59.92776195 40.24481965 61.54299771 40.20898438 63.15820312 C40.12424601 67.10532476 40.05734951 71.05238927 40 75 C35.38 75 30.76 75 26 75 C26.18755859 72.03966797 26.18755859 72.03966797 26.37890625 69.01953125 C27.08426107 47.81537889 22.22898557 34.589663 10.23779297 17.27197266 C7.87249323 13.8135669 5.63546451 10.29878288 3.44140625 6.73046875 C2.77955322 5.65563232 2.1177002 4.5807959 1.43579102 3.47338867 C0 1 0 1 0 0 Z " fill="#F8F8F8" transform="translate(690,657)"/>
<path d="M0 0 C19.8 0 39.6 0 60 0 C60 4.29 60 8.58 60 13 C52.41 13 44.82 13 37 13 C37 33.13 37 53.26 37 74 C32.38 74 27.76 74 23 74 C23 53.87 23 33.74 23 13 C15.41 13 7.82 13 0 13 C0 8.71 0 4.42 0 0 Z " fill="#F9F9F9" transform="translate(373,658)"/>
<path d="M0 0 C4.95 0 9.9 0 15 0 C15 20.13 15 40.26 15 61 C25.89 61 36.78 61 48 61 C48 65.29 48 69.58 48 74 C32.16 74 16.32 74 0 74 C0 49.58 0 25.16 0 0 Z " fill="#F5F4F4" transform="translate(447,766)"/>
<path d="M0 0 C4.62 0 9.24 0 14 0 C14 20.13 14 40.26 14 61 C25.22 61 36.44 61 48 61 C48 65.29 48 69.58 48 74 C31.83 74 15.66 74 -1 74 C-0.67 49.58 -0.34 25.16 0 0 Z " fill="#F9F9F9" transform="translate(516,766)"/>
<path d="M0 0 C4.62 0 9.24 0 14 0 C14 24.42 14 48.84 14 74 C9.38 74 4.76 74 0 74 C0 49.58 0 25.16 0 0 Z " fill="#F9F9F9" transform="translate(585,766)"/>
<path d="M0 0 C4.62 0 9.24 0 14 0 C14 24.42 14 48.84 14 74 C9.38 74 4.76 74 0 74 C0 49.58 0 25.16 0 0 Z " fill="#FAFAFA" transform="translate(342,658)"/>
<path d="M0 0 C3.031875 -0.061875 6.06375 -0.12375 9.1875 -0.1875 C10.60712036 -0.22846802 10.60712036 -0.22846802 12.05541992 -0.27026367 C16.82038109 -0.31730129 20.22686251 -0.26028385 24 3 C26.74220278 7.05116967 26.50621436 11.28376957 26 16 C24.99642824 19.07762008 24.10995924 20.37406408 21.2890625 21.96484375 C14.36864541 24.7561644 7.34996325 24.2140766 0 24 C0 16.08 0 8.16 0 0 Z " fill="#060606" transform="translate(714,779)"/>
<path d="M0 0 C4.33125 -0.061875 4.33125 -0.061875 8.75 -0.125 C10.10496582 -0.15231201 10.10496582 -0.15231201 11.48730469 -0.18017578 C12.20821289 -0.1851709 12.92912109 -0.19016602 13.671875 -0.1953125 C14.4050293 -0.20578613 15.13818359 -0.21625977 15.89355469 -0.22705078 C18.36885304 0.03975815 19.90029251 0.6693007 22 2 C24.6790573 6.01858595 24.69610694 9.27641721 24 14 C22.20606332 16.87029869 21.01736724 18.49131638 18 20 C16.62451844 20.08308638 15.24514204 20.10736016 13.8671875 20.09765625 C13.14128418 20.09515869 12.41538086 20.09266113 11.66748047 20.09008789 C10.74596191 20.08098389 9.82444336 20.07187988 8.875 20.0625 C5.94625 20.041875 3.0175 20.02125 0 20 C0 13.4 0 6.8 0 0 Z " fill="#060606" transform="translate(640,700)"/>
<path d="M0 0 C7.5193909 -0.25634287 13.22639519 -0.38680241 20 3 C22.45068846 6.67603269 22.70632248 9.72761034 22 14 C19.67414928 17.23957778 17.84336149 18.32481487 14 19 C9.32977236 19.13207657 4.67317059 19.0432701 0 19 C0 12.73 0 6.46 0 0 Z " fill="#090909" transform="translate(640,669)"/>
<path d="M0 0 C2 3.75 2 3.75 2 6 C-0.31 6.66 -2.62 7.32 -5 8 C-4.67 7.01 -4.34 6.02 -4 5 C-3.34 5 -2.68 5 -2 5 C-1.34 3.35 -0.68 1.7 0 0 Z " fill="#ECEDEC" transform="translate(319,670)"/>
<path d="M0 0 C0 0.66 0 1.32 0 2 C-1.96466413 3.06775224 -3.96855359 4.06553465 -6 5 C-6.66 4.67 -7.32 4.34 -8 4 C-3.375 0 -3.375 0 0 0 Z " fill="#FDFDFD" transform="translate(588,300)"/>
</svg>
